<?xml version="1.0" standalone="no"?>
<!DOCTYPE svg PUBLIC "-//W3C//DTD SVG 20010904//EN"
 "http://www.w3.org/TR/2001/REC-SVG-20010904/DTD/svg10.dtd">
<svg version="1.0" xmlns="http://www.w3.org/2000/svg"
 width="260.000000pt" height="260.000000pt" viewBox="0 0 260.000000 260.000000"
 preserveAspectRatio="xMidYMid meet">
<metadata>
Created by potrace 1.14, written by Peter Selinger 2001-2017
</metadata>
<g transform="translate(0.000000,260.000000) scale(0.100000,-0.100000)"
fill="#000000" stroke="none">
<path d="M1119 1945 c-209 -42 -406 -185 -493 -357 -36 -71 -42 -78 -75 -84
-219 -38 -400 -107 -450 -170 -138 -176 421 -334 1179 -334 758 0 1317 158
1179 334 -50 63 -231 132 -450 170 -33 6 -39 13 -75 84 -67 133 -206 255 -364
319 -127 51 -309 66 -451 38z"/>
<path d="M730 935 c92 -99 331 -175 550 -175 219 0 458 76 550 175 l25 27 -30
-5 c-104 -20 -296 -31 -545 -31 -249 0 -441 11 -545 31 l-30 5 25 -27z"/>
</g>
</svg>
